<?xml version="1.0" encoding="UTF-8" standalone="no"?>
<!-- Created with Inkscape (http://www.inkscape.org/) -->

<svg
   width="219"
   height="40"
   viewBox="0 0 57.943749 10.583334"
   version="1.1"
   id="svg5"
   xmlns="http://www.w3.org/2000/svg"
   xmlns:svg="http://www.w3.org/2000/svg">
  <defs
     id="defs2" />
  <g
     id="layer1" />
  <g
     id="layer2">
    <text
       xml:space="preserve"
       style="font-size:4.40972px;line-height:125%;font-family:IPAゴシック;-inkscape-font-specification:IPAゴシック;letter-spacing:0px;word-spacing:0px;writing-mode:lr-tb;fill:#000000;fill-opacity:1;stroke:none;stroke-width:0.274045px;stroke-linecap:butt;stroke-linejoin:miter;stroke-opacity:1"
       x="17.530981"
       y="6.4194236"
       id="text1704"
       transform="scale(0.96547435,1.0357603)"><tspan
         style="font-style:normal;font-variant:normal;font-weight:normal;font-stretch:normal;font-size:4.40972px;font-family:sans-serif;-inkscape-font-specification:'sans-serif, Normal';font-variant-ligatures:normal;font-variant-caps:normal;font-variant-numeric:normal;font-variant-east-asian:normal;fill:#000000;fill-opacity:1;stroke:#000000;stroke-width:0.274045px;stroke-opacity:1"
         x="17.530981"
         y="6.4194236"
         id="tspan3644">rehype-image-salt</tspan></text>
  </g>
  <g
     id="layer3">
    <rect
       style="fill:#385caf;fill-opacity:1;stroke:#385caf;stroke-width:1.23626;stroke-linecap:round;stroke-linejoin:round;stroke-opacity:1;paint-order:stroke markers fill"
       id="rect5781"
       width="12.263738"
       height="9.346736"
       x="1.9201306"
       y="0.61813098"
       ry="1.6155678" />
    <g
       aria-label="{...}"
       id="text30221-3"
       style="font-size:4.23333px;line-height:125%;font-family:IPAゴシック;-inkscape-font-specification:IPAゴシック;letter-spacing:0px;word-spacing:0px;fill:#ffffff;stroke:#ffffff;stroke-width:0.264583px"
       transform="translate(0.7502285)">
      <path
         d="M 3.5933767,8.0687315 H 4.0167098 V 7.5381541 H 3.903821 c -0.2652887,0 -0.333022,-0.084667 -0.333022,-0.4346219 0,-0.3443109 0.022578,-0.6547551 0.022578,-1.0329326 0,-0.5023551 -0.1580443,-0.6886217 -0.4910662,-0.7619994 V 5.280378 C 3.4353327,5.201356 3.593377,5.0150893 3.593377,4.5183786 c 0,-0.3894664 -0.022578,-0.6999106 -0.022578,-1.038577 0,-0.3499553 0.067733,-0.4346219 0.333022,-0.4346219 H 4.0167098 V 2.5146023 H 3.5933767 c -0.5757329,0 -0.8353771,0.2257776 -0.8353771,0.9313327 0,0.4515552 0.062089,0.6716883 0.062089,1.078088 0,0.2257776 -0.1354665,0.4571997 -0.5475107,0.474133 v 0.5870218 c 0.4120442,0.011289 0.5475107,0.2427109 0.5475107,0.474133 0,0.4063997 -0.062089,0.6265328 -0.062089,1.0837325 0,0.6999106 0.2596442,0.9256882 0.8353771,0.9256882 z"
         style="font-weight:900;font-size:5.64444px;font-family:'Noto Sans CJK JP';-inkscape-font-specification:'Noto Sans CJK JP, Heavy'"
         id="path31764" />
      <path
         d="m 5.3205732,7.165621 c 0.3443109,0 0.5983107,-0.2765775 0.5983107,-0.6265328 0,-0.3499553 -0.2539998,-0.6208884 -0.5983107,-0.6208884 -0.3499552,0 -0.5983106,0.2709331 -0.5983106,0.6208884 0,0.3499553 0.2483554,0.6265328 0.5983106,0.6265328 z"
         style="font-weight:900;font-size:5.64444px;font-family:'Noto Sans CJK JP';-inkscape-font-specification:'Noto Sans CJK JP, Heavy'"
         id="path31766" />
      <path
         d="m 7.3017711,7.165621 c 0.3443108,0 0.5983106,-0.2765775 0.5983106,-0.6265328 0,-0.3499553 -0.2539998,-0.6208884 -0.5983106,-0.6208884 -0.3499553,0 -0.5983107,0.2709331 -0.5983107,0.6208884 0,0.3499553 0.2483554,0.6265328 0.5983107,0.6265328 z"
         style="font-weight:900;font-size:5.64444px;font-family:'Noto Sans CJK JP';-inkscape-font-specification:'Noto Sans CJK JP, Heavy'"
         id="path31768" />
      <path
         d="m 9.2829684,7.165621 c 0.3443109,0 0.5983107,-0.2765775 0.5983107,-0.6265328 0,-0.3499553 -0.2539998,-0.6208884 -0.5983107,-0.6208884 -0.3499553,0 -0.5983106,0.2709331 -0.5983106,0.6208884 0,0.3499553 0.2483553,0.6265328 0.5983106,0.6265328 z"
         style="font-weight:900;font-size:5.64444px;font-family:'Noto Sans CJK JP';-inkscape-font-specification:'Noto Sans CJK JP, Heavy'"
         id="path31770" />
      <path
         d="m 10.581189,8.0687315 h 0.423333 c 0.575732,0 0.835377,-0.2257776 0.835377,-0.9256882 0,-0.4571997 -0.06209,-0.6773328 -0.06209,-1.0837325 0,-0.2314221 0.135466,-0.4628441 0.553155,-0.474133 V 4.998156 C 11.913276,4.9812227 11.77781,4.7498006 11.77781,4.524023 c 0,-0.4063997 0.06209,-0.6265328 0.06209,-1.078088 0,-0.7055551 -0.259645,-0.9313327 -0.835377,-0.9313327 H 10.58119 v 0.5305774 h 0.112888 c 0.259645,0 0.333022,0.084667 0.333022,0.4346219 0,0.3386664 -0.02258,0.6491106 -0.02258,1.038577 0,0.4967107 0.158044,0.6829773 0.491066,0.7619994 V 5.3086 c -0.333022,0.073378 -0.491066,0.2596443 -0.491066,0.7619994 0,0.3781775 0.02258,0.6886217 0.02258,1.0329326 0,0.3499553 -0.07338,0.4346219 -0.333022,0.4346219 H 10.58119 Z"
         style="font-weight:900;font-size:5.64444px;font-family:'Noto Sans CJK JP';-inkscape-font-specification:'Noto Sans CJK JP, Heavy'"
         id="path31772" />
    </g>
  </g>
  <g
     id="layer4"
     style="display:none">
    <text
       xml:space="preserve"
       style="font-size:4.23333px;line-height:125%;font-family:IPAゴシック;-inkscape-font-specification:IPAゴシック;letter-spacing:0px;word-spacing:0px;writing-mode:lr-tb;fill:#ffffff;fill-opacity:1;stroke:#ffffff;stroke-width:0.264583px;stroke-linecap:butt;stroke-linejoin:miter;stroke-opacity:1"
       x="6.2917352"
       y="7.0992622"
       id="text30221"><tspan
         id="tspan30219"
         style="font-style:normal;font-variant:normal;font-weight:900;font-stretch:normal;font-size:5.64444px;font-family:'Noto Sans CJK JP';-inkscape-font-specification:'Noto Sans CJK JP, Heavy';font-variant-ligatures:normal;font-variant-caps:normal;font-variant-numeric:normal;font-variant-east-asian:normal;fill:#ffffff;fill-opacity:1;stroke:#ffffff;stroke-width:0.264583px;stroke-opacity:1"
         x="6.2917352"
         y="7.0992622">{...}</tspan></text>
  </g>
</svg>
